<?xml version="1.0" standalone="no"?>
<!DOCTYPE svg PUBLIC "-//W3C//DTD SVG 20010904//EN"
 "http://www.w3.org/TR/2001/REC-SVG-20010904/DTD/svg10.dtd">
<svg version="1.0" xmlns="http://www.w3.org/2000/svg"
 width="86.000000pt" height="86.000000pt" viewBox="0 0 86.000000 86.000000"
 preserveAspectRatio="xMidYMid meet">
<metadata>
Created by potrace 1.11, written by Peter Selinger 2001-2013
</metadata>
<g transform="translate(0.000000,86.000000) scale(0.100000,-0.100000)"
fill="#000000" stroke="none">
<path d="M340 840 c0 -4 -7 -7 -15 -7 -32 0 -142 -60 -180 -98 -50 -50 -95
-132 -111 -204 -15 -63 -10 -196 7 -217 6 -8 8 -14 5 -14 -17 0 60 -122 102
-161 43 -41 152 -108 152 -94 0 3 9 1 20 -5 11 -6 42 -12 69 -14 27 -2 54 -6
60 -10 6 -4 11 -3 11 2 0 5 10 9 23 9 112 -1 269 111 326 233 40 87 51 161 37
255 -11 74 -63 175 -114 223 -39 37 -132 89 -169 95 -10 1 -23 5 -28 9 -14 9
-195 7 -195 -2z m360 -402 c0 -17 -15 -31 -37 -34 -6 -1 -44 31 -83 72 -40 41
-74 74 -76 74 -5 0 -88 90 -97 106 -5 8 0 21 14 35 l21 21 129 -128 c71 -71
129 -136 129 -146z m-237 110 c8 -36 0 -119 -12 -131 -7 -7 -58 -12 -137 -12
-114 -1 -126 1 -136 18 -19 37 10 49 118 51 97 1 98 1 99 26 3 48 15 70 40 70
16 0 24 -7 28 -22z m-81 -241 c77 -75 90 -95 77 -119 -13 -25 -37 -11 -117 66
-76 73 -88 92 -71 112 18 22 40 10 111 -59z"/>
</g>
</svg>
